<?xml version="1.0" standalone="no"?>
<!DOCTYPE svg PUBLIC "-//W3C//DTD SVG 20010904//EN"
 "http://www.w3.org/TR/2001/REC-SVG-20010904/DTD/svg10.dtd">
<svg version="1.0" xmlns="http://www.w3.org/2000/svg"
 width="430.000000pt" height="436.000000pt" viewBox="0 0 430.000000 436.000000"
 preserveAspectRatio="xMidYMid meet">
<metadata>
Created by potrace 1.15, written by Peter Selinger 2001-2017
</metadata>
<g transform="translate(0.000000,436.000000) scale(0.100000,-0.100000)"
fill="#000000" stroke="none">
<path d="M1925 4127 c-49 -4 -121 -12 -160 -18 -38 -6 -101 -15 -139 -20 -38
-5 -83 -16 -100 -24 -17 -7 -65 -28 -106 -45 -41 -17 -79 -36 -85 -44 -5 -7
-17 -15 -25 -18 -124 -51 -187 -81 -204 -96 -12 -11 -43 -32 -71 -48 -90 -52
-203 -144 -307 -250 -56 -57 -110 -104 -120 -104 -11 0 -26 -17 -39 -42 -12
-24 -30 -52 -40 -63 -35 -37 -105 -150 -149 -240 -24 -49 -49 -97 -56 -105 -6
-8 -19 -44 -27 -80 -34 -140 -50 -186 -68 -200 -15 -12 -25 -45 -40 -125 -12
-61 -26 -135 -32 -165 -15 -70 -13 -411 2 -505 7 -38 16 -106 21 -149 6 -44
14 -84 20 -90 5 -5 10 -19 10 -30 0 -12 8 -34 18 -51 10 -16 24 -49 32 -73 15
-48 33 -67 55 -58 20 7 19 35 -3 60 -18 20 -25 41 -56 156 -46 170 -68 361
-48 410 11 25 11 25 11 2 1 -13 15 -50 33 -83 17 -34 35 -80 40 -102 23 -104
28 -127 47 -197 10 -41 27 -104 36 -140 9 -36 20 -69 25 -74 6 -6 10 -17 10
-25 0 -8 13 -42 29 -75 47 -97 71 -154 71 -165 0 -6 13 -33 30 -59 16 -27 30
-54 30 -60 0 -5 19 -34 43 -62 23 -29 49 -63 57 -75 8 -12 37 -54 64 -94 26
-39 93 -113 147 -164 55 -50 99 -97 99 -105 0 -7 21 -23 48 -35 50 -24 125
-74 178 -120 17 -15 36 -27 40 -27 14 -1 70 -50 57 -50 -6 0 -15 4 -18 10 -12
19 -35 10 -35 -12 0 -21 36 -48 63 -48 6 0 15 -7 21 -16 7 -8 31 -18 54 -21
38 -5 42 -4 42 15 0 16 -8 23 -36 28 -20 4 -45 15 -55 25 -22 22 -12 25 16 5
11 -7 31 -17 45 -20 85 -25 148 -63 80 -49 -27 5 -30 3 -30 -21 0 -23 4 -27
23 -25 12 2 31 -2 42 -8 11 -6 40 -14 64 -18 24 -4 68 -20 97 -36 52 -29 103
-40 279 -58 39 -4 165 -4 280 1 294 11 331 14 405 31 36 9 86 18 112 21 26 3
56 10 65 15 10 6 52 26 93 45 41 20 82 40 90 45 29 19 115 58 145 65 17 4 46
20 65 34 19 15 60 43 92 62 134 82 207 141 307 247 58 62 111 113 117 113 12
0 54 42 54 54 0 5 16 26 35 47 19 22 35 45 35 53 0 8 10 23 23 33 29 24 36 36
104 173 31 63 65 147 74 185 34 133 46 168 61 179 34 25 77 306 78 511 1 201
-38 515 -72 574 -10 18 -23 55 -29 81 -11 52 -39 86 -64 77 -21 -9 -19 -44 4
-69 11 -11 23 -39 26 -62 4 -22 11 -45 15 -51 7 -9 33 -115 61 -250 7 -33 11
-82 10 -110 -2 -51 -20 -115 -32 -115 -3 0 -9 25 -11 55 -3 31 -12 63 -21 73
-9 9 -19 38 -22 62 -4 25 -11 54 -15 65 -5 11 -25 88 -45 170 -36 151 -60 226
-94 300 -10 22 -32 69 -49 105 -89 192 -107 226 -144 266 -22 24 -48 57 -57
73 -38 69 -75 113 -170 207 -56 54 -110 114 -121 132 l-20 34 47 -38 c27 -21
86 -75 132 -121 57 -57 91 -83 107 -83 28 0 31 18 10 58 -15 29 -159 172 -217
215 -44 33 -109 38 -109 9 0 -10 5 -23 12 -30 51 -51 -115 56 -197 127 -31 26
-143 81 -240 118 -42 15 -51 23 -53 47 -4 30 -48 56 -97 56 -15 0 -41 10 -58
23 -40 29 -93 47 -138 47 -19 0 -52 5 -74 11 -47 13 -409 17 -540 6z m450
-188 c61 -7 114 -16 120 -20 5 -5 18 -9 30 -9 11 0 58 -14 104 -30 46 -17 92
-30 102 -30 10 0 38 -9 61 -20 115 -52 196 -93 225 -113 18 -12 57 -38 88 -57
30 -19 57 -40 59 -47 3 -6 31 -28 63 -49 65 -43 197 -170 234 -225 30 -45 111
-168 155 -234 18 -28 56 -99 85 -160 41 -87 51 -119 51 -160 0 -27 6 -70 14
-95 7 -25 16 -57 19 -72 6 -29 29 -38 38 -15 3 6 6 0 6 -14 1 -15 8 -32 16
-39 10 -8 15 -31 15 -66 0 -47 2 -54 20 -54 17 0 20 7 20 50 0 28 -4 50 -9 50
-5 0 -12 35 -16 78 -6 79 -30 185 -65 289 -15 43 -16 53 -5 39 8 -11 15 -24
15 -28 0 -5 10 -25 23 -46 13 -20 33 -73 46 -117 13 -44 29 -93 37 -110 7 -16
15 -59 17 -95 3 -36 12 -111 21 -166 20 -129 22 -209 8 -359 -21 -236 -80
-485 -139 -595 -16 -30 -33 -68 -37 -84 -4 -17 -16 -42 -27 -57 -10 -15 -19
-31 -19 -36 0 -6 -9 -18 -20 -28 -11 -10 -20 -24 -20 -32 0 -8 -26 -46 -57
-86 -32 -39 -65 -81 -73 -92 -8 -11 -60 -66 -115 -123 -101 -105 -203 -187
-285 -231 -57 -31 -103 -63 -112 -78 -25 -37 -316 -146 -481 -179 -38 -8 -75
-20 -82 -28 -21 -20 -193 -30 -430 -23 -171 4 -207 8 -245 25 -43 19 -66 26
-195 58 -59 14 -92 27 -167 65 -20 11 -43 19 -50 19 -8 0 -37 17 -65 38 -28
22 -69 49 -92 60 -63 33 -205 148 -293 236 -43 44 -78 83 -78 87 0 4 -11 20
-24 36 -23 27 -39 51 -81 122 -11 19 -27 42 -36 51 -8 9 -19 23 -22 31 -4 8
-21 37 -37 64 -16 28 -33 57 -36 65 -4 8 -15 34 -26 57 -29 63 -40 102 -48
173 -5 36 -14 97 -21 137 -13 70 -14 72 -44 75 -27 3 -30 7 -33 41 -2 28 -8
37 -22 37 -26 0 -36 -37 -16 -59 10 -11 18 -45 21 -97 6 -84 23 -155 62 -268
13 -38 22 -71 20 -73 -8 -7 -49 72 -64 122 -8 28 -21 64 -28 80 -34 77 -55
160 -55 216 0 33 -4 68 -9 78 -18 34 -43 307 -32 348 6 21 10 79 9 128 -1 50
4 106 10 125 6 19 18 69 26 110 36 184 60 260 110 354 14 27 26 57 26 66 0 10
7 23 15 30 8 7 15 16 15 21 0 19 99 168 165 249 155 188 277 298 437 393 52
32 103 66 113 77 10 11 24 20 32 20 8 0 31 9 51 20 84 44 232 100 266 100 14
0 105 26 141 40 11 4 34 13 50 19 66 25 390 36 550 20z"/>
<path d="M2045 3383 c-16 -3 -38 -11 -49 -19 -11 -8 -30 -14 -42 -14 -43 0
-212 -61 -288 -105 -44 -25 -81 -45 -83 -45 -7 0 -159 -127 -203 -170 -52 -50
-173 -219 -207 -290 -39 -81 -52 -114 -68 -175 -9 -33 -21 -76 -26 -95 -17
-61 -23 -348 -10 -456 13 -100 46 -250 60 -269 5 -5 15 -34 25 -62 9 -29 25
-68 36 -85 11 -18 26 -46 33 -63 8 -16 21 -36 30 -44 10 -7 17 -18 17 -24 0
-42 214 -278 310 -341 25 -17 50 -35 55 -41 36 -40 240 -130 365 -160 41 -11
80 -22 86 -27 17 -12 255 -27 338 -21 63 5 76 9 76 23 0 14 -14 18 -77 24 -98
9 -222 34 -248 50 -11 7 -36 16 -55 19 -19 4 -48 13 -65 21 -16 8 -50 24 -75
35 -119 55 -201 113 -317 224 -83 80 -180 198 -215 261 -51 94 -97 205 -118
283 -6 23 -14 45 -19 47 -12 8 -20 56 -31 178 -10 116 3 287 26 328 7 14 23
54 35 90 11 36 37 94 57 129 20 34 44 77 53 95 28 52 207 227 269 261 164 91
228 115 365 139 39 7 78 16 87 20 40 18 225 -12 328 -53 101 -41 125 -54 189
-105 105 -82 195 -196 241 -306 39 -93 70 -220 70 -291 0 -49 -34 -196 -56
-244 -82 -174 -274 -323 -459 -358 -149 -29 -292 21 -417 144 -90 90 -118 149
-143 301 -18 115 96 308 214 359 25 11 57 25 69 32 34 17 119 13 179 -7 38
-12 70 -34 111 -75 51 -50 61 -67 77 -124 38 -142 -26 -258 -170 -303 -50 -16
-55 -16 -99 2 -30 12 -61 36 -84 64 -33 40 -37 50 -37 103 0 58 1 60 48 103
35 31 58 44 79 44 23 0 29 4 26 18 -3 14 -14 17 -71 16 -63 -1 -70 -3 -102
-34 -50 -48 -69 -105 -62 -186 8 -99 46 -166 121 -213 59 -36 61 -36 165 -36
87 0 114 4 153 22 75 34 113 69 159 145 42 69 43 72 47 178 5 122 -6 170 -63
268 -56 96 -81 120 -184 170 l-96 47 -151 0 c-127 0 -155 -3 -170 -17 -11 -9
-35 -20 -55 -26 -130 -35 -278 -203 -320 -364 -25 -99 -26 -275 0 -379 33
-136 72 -203 194 -335 51 -55 192 -135 287 -163 25 -7 58 -17 74 -22 68 -21
386 -3 386 22 0 4 19 10 42 14 23 4 49 11 58 15 8 5 40 21 70 35 160 79 291
210 371 370 75 150 92 244 86 460 -5 163 -21 260 -56 340 -46 103 -80 165
-117 214 -24 32 -44 63 -44 68 0 21 -246 230 -283 242 -7 1 -30 11 -52 21
-102 46 -138 59 -192 70 -32 7 -64 17 -72 24 -14 11 -355 19 -416 9z"/>
<path d="M680 836 c0 -13 7 -29 15 -36 8 -7 15 -18 15 -24 0 -15 126 -140 196
-195 61 -48 114 -57 114 -18 0 16 -27 44 -95 100 -52 43 -95 82 -95 87 0 14
-119 110 -136 110 -8 0 -14 -10 -14 -24z"/>
</g>
</svg>
